<?xml version="1.0" standalone="no"?>
<!DOCTYPE svg PUBLIC "-//W3C//DTD SVG 20010904//EN"
 "http://www.w3.org/TR/2001/REC-SVG-20010904/DTD/svg10.dtd">
<svg version="1.0" xmlns="http://www.w3.org/2000/svg"
 width="256.000000pt" height="256.000000pt" viewBox="0 0 256.000000 256.000000"
 preserveAspectRatio="xMidYMid meet">
<metadata>
Created by potrace 1.14, written by Peter Selinger 2001-2017
</metadata>
<g transform="translate(0.000000,256.000000) scale(0.100000,-0.100000)"
fill="#000000" stroke="none">
<path d="M929 2383 c-18 -16 -48 -45 -67 -65 -33 -36 -33 -37 -53 -17 -24 24
-95 26 -127 3 -12 -8 -31 -33 -42 -55 -18 -34 -23 -38 -40 -29 -32 17 -76 12
-100 -13 -25 -26 -60 -104 -100 -226 -20 -59 -34 -87 -48 -92 -10 -4 -29 -20
-41 -35 -19 -24 -21 -39 -21 -160 0 -101 -5 -154 -21 -221 -15 -60 -22 -126
-23 -208 -2 -114 0 -121 22 -144 19 -19 31 -22 62 -18 50 6 76 -12 85 -60 4
-21 13 -49 20 -63 7 -14 39 -79 71 -145 60 -126 167 -297 215 -346 9 -9 18
-20 20 -25 6 -13 120 -104 130 -104 5 0 32 -15 61 -33 48 -30 111 -53 191 -71
26 -6 27 -9 27 -71 l0 -65 30 0 c30 0 30 0 30 56 0 64 -13 60 110 33 68 -14
230 -6 285 15 22 8 74 25 115 37 85 25 264 115 327 163 58 45 158 158 183 206
52 101 61 154 67 373 5 181 3 216 -12 265 -25 83 -67 195 -76 207 -4 6 -17 35
-28 66 -12 31 -53 107 -91 169 -67 107 -70 115 -70 174 0 65 -15 93 -57 115
-13 7 -23 19 -23 29 0 9 -12 40 -25 67 -14 28 -25 63 -25 79 0 18 -10 40 -26
57 -14 14 -33 42 -42 60 -23 47 -65 65 -116 52 -36 -10 -42 -9 -79 18 -62 45
-132 37 -193 -22 l-31 -30 -22 34 c-38 62 -101 72 -158 23 -26 -22 -30 -23
-66 -10 -21 7 -50 23 -64 34 -40 32 -122 28 -164 -7z"/>
</g>
</svg>
